<svg width="82pt" height="82pt" viewBox="0 0 82 82" xmlns="http://www.w3.org/2000/svg"><g fill="#f8df34"><path d="M0 0h82v82H0V0m36.81 58.23c-.01 6.03-.01 12.06 0 18.1h3.61c.03-2.94-.22-5.91.28-8.81.2-2.13 4.06-2.63 4.51-.44.52 3.05.25 6.17.28 9.25h3.6c-.15-3.88.65-7.99-.7-11.71-1.9-2.85-5.79-1.8-8.08-.03.08-2.11.12-4.22.17-6.32-1.23-.02-2.45-.03-3.67-.04m-7.66 1.07c-.01 1.28-.02 2.56-.02 3.84l-2.18.16c0 .57.01 1.71.01 2.28.54.03 1.63.1 2.17.14.04 2.98-.24 6 .26 8.96.91 2.3 4.04 1.44 5.96 1.92l.12-2.9c-.66-.08-1.99-.26-2.65-.34-.03-2.55-.05-5.1-.07-7.65.67-.03 1.99-.08 2.66-.11l.05-2.29c-.67-.04-2.01-.13-2.68-.18-.01-1.27-.01-2.55-.02-3.83h-3.61m22.18 6.02c-2.92 3.71-1.24 10.59 3.86 11.22 3.4.87 6.35-1.3 7.95-4.13-1.03-.02-2.06-.05-3.09-.06-1.25.6-2.44 1.78-3.93 1.55-1.69-.12-2.16-2.02-3.05-3.12 3.4-.12 6.8-.12 10.2-.15-.5-1.98-.6-4.24-2.02-5.83-2.53-2.91-7.66-2.53-9.92.52m12.48-2.43c-.06 4.48-.01 8.96-.02 13.44h3.61c.04-2.96-.24-5.97.29-8.89.25-2.09 4.11-2.49 4.48-.34.55 3.04.27 6.16.3 9.24.9-.01 2.71-.01 3.61-.01-.06-3.68.39-7.43-.42-11.05-1.23-3.23-5.58-2.88-7.9-1.07-1.25-.64-2.58-1.05-3.95-1.32z"/><path d="M53 68.22c1.15-1.48 2.58-3.38 4.72-2.47.53.63 1.58 1.88 2.1 2.51-2.27.04-4.55.04-6.82-.04z"/></g><g fill="#524839"><path d="M36.81 58.23c1.22.01 2.44.02 3.67.04-.05 2.1-.09 4.21-.17 6.32 2.29-1.77 6.18-2.82 8.08.03 1.35 3.72.55 7.83.7 11.71h-3.6c-.03-3.08.24-6.2-.28-9.25-.45-2.19-4.31-1.69-4.51.44-.5 2.9-.25 5.87-.28 8.81h-3.61c-.01-6.04-.01-12.07 0-18.1zM29.15 59.3h3.61c.01 1.28.01 2.56.02 3.83.67.05 2.01.14 2.68.18l-.05 2.29c-.67.03-1.99.08-2.66.11.02 2.55.04 5.1.07 7.65.66.08 1.99.26 2.65.34l-.12 2.9c-1.92-.48-5.05.38-5.96-1.92-.5-2.96-.22-5.98-.26-8.96-.54-.04-1.63-.11-2.17-.14 0-.57-.01-1.71-.01-2.28l2.18-.16c0-1.28.01-2.56.02-3.84z"/><path d="M51.33 65.32c2.26-3.05 7.39-3.43 9.92-.52 1.42 1.59 1.52 3.85 2.02 5.83-3.4.03-6.8.03-10.2.15.89 1.1 1.36 3 3.05 3.12 1.49.23 2.68-.95 3.93-1.55 1.03.01 2.06.04 3.09.06-1.6 2.83-4.55 5-7.95 4.13-5.1-.63-6.78-7.51-3.86-11.22m1.67 2.9c2.27.08 4.55.08 6.82.04-.52-.63-1.57-1.88-2.1-2.51-2.14-.91-3.57.99-4.72 2.47zM63.81 62.89c1.37.27 2.7.68 3.95 1.32 2.32-1.81 6.67-2.16 7.9 1.07.81 3.62.36 7.37.42 11.05-.9 0-2.71 0-3.61.01-.03-3.08.25-6.2-.3-9.24-.37-2.15-4.23-1.75-4.48.34-.53 2.92-.25 5.93-.29 8.89h-3.61c.01-4.48-.04-8.96.02-13.44z"/></g></svg>